<mxfile host="drawio-plugin" modified="2022-09-07T01:51:19.401Z" agent="5.0 (Windows NT 6.2; Win64; x64) AppleWebKit/537.36 (KHTML, like Gecko) Chrome/97.0.4692.45 Safari/537.36" etag="O0ZjGbd5B3T_lAmhJq-A" version="15.5.4" type="embed" pages="2"><diagram id="23iRSUPoRavnBvh4doch" name="Page-1"><mxGraphModel dx="654" dy="741" grid="1" gridSize="10" guides="1" tooltips="1" connect="1" arrows="1" fold="1" page="1" pageScale="1" pageWidth="827" pageHeight="1169" background="#F4F1DE" math="0" shadow="0"><root><mxCell id="0"/><mxCell id="1" parent="0"/><mxCell id="15" value="Command的同步机制" style="whiteSpace=wrap;html=1;rounded=0;sketch=0;fontColor=#393C56;strokeColor=#E07A5F;fillColor=#F2CC8F;" parent="1" vertex="1"><mxGeometry x="250" y="390" width="120" height="60" as="geometry"/></mxCell><mxCell id="17" value="" style="group;fontColor=#393C56;" parent="1" vertex="1" connectable="0"><mxGeometry x="80" y="100" width="120" height="650" as="geometry"/></mxCell><mxCell id="2" value="等待前一帧完成" style="strokeWidth=2;html=1;shape=mxgraph.flowchart.start_1;whiteSpace=wrap;fillColor=#F2CC8F;strokeColor=#E07A5F;fontColor=#393C56;" parent="17" vertex="1"><mxGeometry x="10" width="100" height="60" as="geometry"/></mxCell><mxCell id="16" value="" style="group;fontColor=#393C56;" parent="17" vertex="1" connectable="0"><mxGeometry y="160" width="120" height="490" as="geometry"/></mxCell><mxCell id="8" value="&lt;span&gt;把如果绘制一帧的Command绘制到一个CommandBuffer上&lt;/span&gt;" style="rounded=0;whiteSpace=wrap;html=1;fillColor=#F2CC8F;strokeColor=#E07A5F;fontColor=#393C56;" parent="16" vertex="1"><mxGeometry y="130" width="120" height="60" as="geometry"/></mxCell><mxCell id="10" style="edgeStyle=orthogonalEdgeStyle;rounded=0;orthogonalLoop=1;jettySize=auto;html=1;entryX=0.5;entryY=0;entryDx=0;entryDy=0;strokeColor=#E07A5F;fontColor=#393C56;labelBackgroundColor=#F4F1DE;" parent="16" source="9" target="8" edge="1"><mxGeometry relative="1" as="geometry"/></mxCell><mxCell id="9" value="&lt;span&gt;从SwapChain获取一张Image&lt;/span&gt;" style="rounded=0;whiteSpace=wrap;html=1;fillColor=#F2CC8F;strokeColor=#E07A5F;fontColor=#393C56;" parent="16" vertex="1"><mxGeometry width="120" height="60" as="geometry"/></mxCell><mxCell id="11" value="提交录制到的CommandBuffer" style="rounded=0;whiteSpace=wrap;html=1;fillColor=#F2CC8F;strokeColor=#E07A5F;fontColor=#393C56;" parent="16" vertex="1"><mxGeometry y="270" width="120" height="60" as="geometry"/></mxCell><mxCell id="12" style="edgeStyle=orthogonalEdgeStyle;rounded=0;orthogonalLoop=1;jettySize=auto;html=1;entryX=0.5;entryY=0;entryDx=0;entryDy=0;strokeColor=#E07A5F;fontColor=#393C56;labelBackgroundColor=#F4F1DE;" parent="16" source="8" target="11" edge="1"><mxGeometry relative="1" as="geometry"/></mxCell><mxCell id="13" value="展示该SwapChain&lt;br&gt;Image" style="rounded=0;whiteSpace=wrap;html=1;fillColor=#F2CC8F;strokeColor=#E07A5F;fontColor=#393C56;" parent="16" vertex="1"><mxGeometry y="430" width="120" height="60" as="geometry"/></mxCell><mxCell id="14" style="edgeStyle=orthogonalEdgeStyle;rounded=0;orthogonalLoop=1;jettySize=auto;html=1;entryX=0.5;entryY=0;entryDx=0;entryDy=0;strokeColor=#E07A5F;fontColor=#393C56;labelBackgroundColor=#F4F1DE;" parent="16" source="11" target="13" edge="1"><mxGeometry relative="1" as="geometry"/></mxCell><mxCell id="4" style="edgeStyle=orthogonalEdgeStyle;rounded=0;orthogonalLoop=1;jettySize=auto;html=1;entryX=0.5;entryY=0;entryDx=0;entryDy=0;strokeColor=#E07A5F;fontColor=#393C56;labelBackgroundColor=#F4F1DE;" parent="17" source="2" target="9" edge="1"><mxGeometry relative="1" as="geometry"><mxPoint x="-580" y="-180" as="targetPoint"/></mxGeometry></mxCell><mxCell id="NTk1WeQjvLveYgml7hBm-18" style="edgeStyle=orthogonalEdgeStyle;curved=0;rounded=1;sketch=0;orthogonalLoop=1;jettySize=auto;html=1;entryX=1;entryY=0;entryDx=0;entryDy=0;fontColor=#393C56;strokeColor=#E07A5F;fillColor=#F2CC8F;labelBackgroundColor=#F4F1DE;" parent="1" source="NTk1WeQjvLveYgml7hBm-17" target="15" edge="1"><mxGeometry relative="1" as="geometry"/></mxCell><mxCell id="NTk1WeQjvLveYgml7hBm-17" value="由于指令队列是在GPU异步并行执行的，所以我们需要明确指明命令的顺序" style="text;html=1;strokeColor=none;fillColor=none;align=center;verticalAlign=middle;whiteSpace=wrap;rounded=0;sketch=0;fontColor=#393C56;" parent="1" vertex="1"><mxGeometry x="430" y="390" width="220" height="30" as="geometry"/></mxCell><mxCell id="NTk1WeQjvLveYgml7hBm-20" style="edgeStyle=orthogonalEdgeStyle;curved=0;rounded=1;sketch=0;orthogonalLoop=1;jettySize=auto;html=1;entryX=1.025;entryY=0.617;entryDx=0;entryDy=0;entryPerimeter=0;fontColor=#393C56;strokeColor=#E07A5F;fillColor=#F2CC8F;labelBackgroundColor=#F4F1DE;" parent="1" source="NTk1WeQjvLveYgml7hBm-19" target="15" edge="1"><mxGeometry relative="1" as="geometry"/></mxCell><mxCell id="NTk1WeQjvLveYgml7hBm-19" value="同步对象" style="text;html=1;strokeColor=none;fillColor=none;align=center;verticalAlign=middle;whiteSpace=wrap;rounded=0;sketch=0;fontColor=#393C56;" parent="1" vertex="1"><mxGeometry x="400" y="440" width="60" height="30" as="geometry"/></mxCell><mxCell id="34" value="&lt;font color=&quot;#000000&quot;&gt;这里返回的是ImageIndex，由Vulkan进行管理的，&lt;br&gt;会自动递增，到最后也会自动置零，&lt;/font&gt;&lt;font color=&quot;#000000&quot;&gt;拿到这个值之后,后续要用这个ImageIndex作为索引取其他的各种值&lt;/font&gt;" style="shape=note;whiteSpace=wrap;html=1;backgroundOutline=1;darkOpacity=0.05;rounded=0;labelBackgroundColor=none;sketch=0;fontColor=#FFFCFA;strokeColor=#E07A5F;fillColor=#F2CC8F;align=left;" vertex="1" parent="1"><mxGeometry x="290" y="160" width="320" height="60" as="geometry"/></mxCell><mxCell id="36" style="edgeStyle=orthogonalEdgeStyle;curved=0;rounded=1;sketch=0;orthogonalLoop=1;jettySize=auto;html=1;exitX=1;exitY=0.25;exitDx=0;exitDy=0;entryX=0;entryY=0.5;entryDx=0;entryDy=0;entryPerimeter=0;fontColor=#FFFCFA;strokeColor=#E07A5F;fillColor=#F2CC8F;" edge="1" parent="1" source="9" target="34"><mxGeometry relative="1" as="geometry"/></mxCell></root></mxGraphModel></diagram><diagram id="vKeWisojn-_dJYl2MjCg" name="Page-2"><mxGraphModel dx="739" dy="725" grid="1" gridSize="10" guides="1" tooltips="1" connect="1" arrows="1" fold="1" page="1" pageScale="1" pageWidth="850" pageHeight="1100" math="0" shadow="0"><root><mxCell id="PbfNmwodfruHFRYdV_db-0"/><mxCell id="PbfNmwodfruHFRYdV_db-1" parent="PbfNmwodfruHFRYdV_db-0"/></root></mxGraphModel></diagram></mxfile>